<?xml version="1.0" standalone="no"?>
<!DOCTYPE svg PUBLIC "-//W3C//DTD SVG 20010904//EN"
 "http://www.w3.org/TR/2001/REC-SVG-20010904/DTD/svg10.dtd">
<svg version="1.0" xmlns="http://www.w3.org/2000/svg"
 width="100.000000pt" height="100.000000pt" viewBox="0 0 100.000000 100.000000"
 preserveAspectRatio="xMidYMid meet">
<metadata>
Created by potrace 1.14, written by Peter Selinger 2001-2017
</metadata>
<g transform="translate(0.000000,100.000000) scale(0.100000,-0.100000)"
fill="#000000" stroke="none">
<path d="M440 848 c-19 -17 -71 -64 -115 -103 -44 -40 -99 -89 -123 -108 -24
-20 -63 -56 -88 -79 l-45 -44 23 -21 23 -21 85 75 c47 42 101 90 120 107 160
142 165 146 181 128 9 -9 42 -39 74 -67 32 -27 63 -55 69 -60 18 -17 180 -159
197 -173 14 -10 19 -8 34 14 19 30 27 20 -104 134 -35 30 -76 66 -91 80 -15
14 -45 40 -66 59 -22 19 -58 52 -81 73 -24 21 -46 38 -50 38 -5 0 -24 -15 -43
-32z"/>
<path d="M197 823 c-6 -10 -6 -143 -1 -143 3 0 27 22 54 48 35 35 50 57 50 75
0 26 -3 27 -49 27 -28 0 -52 -3 -54 -7z"/>
<path d="M439 703 c-24 -21 -60 -52 -79 -69 -19 -17 -62 -55 -95 -84 -33 -30
-63 -59 -67 -65 -4 -6 -6 -94 -5 -195 l2 -185 97 -2 97 -2 3 87 3 87 88 3 c48
1 87 -1 88 -5 1 -4 2 -44 2 -88 l2 -80 93 -1 c51 -1 95 2 98 7 4 8 7 230 5
350 -1 21 -27 49 -123 135 -68 59 -133 116 -144 126 -21 19 -22 19 -65 -19z"/>
</g>
</svg>
